<?xml version="1.0" standalone="no"?><svg xmlns="http://www.w3.org/2000/svg" viewBox="0 0 1440 320"><path fill="#5744ed" fill-opacity="1" d="M0,224L30,202.7C60,181,120,139,180,144C240,149,300,203,360,224C420,245,480,235,540,218.7C600,203,660,181,720,186.7C780,192,840,224,900,208C960,192,1020,128,1080,122.7C1140,117,1200,171,1260,197.3C1320,224,1380,224,1410,224L1440,224L1440,320L1410,320C1380,320,1320,320,1260,320C1200,320,1140,320,1080,320C1020,320,960,320,900,320C840,320,780,320,720,320C660,320,600,320,540,320C480,320,420,320,360,320C300,320,240,320,180,320C120,320,60,320,30,320L0,320Z"></path></svg>